<svg xmlns="http://www.w3.org/2000/svg" xmlns:xlink="http://www.w3.org/1999/xlink" width="250" zoomAndPan="magnify" viewBox="0 0 187.5 187.499992" height="250" preserveAspectRatio="xMidYMid meet" version="1.0"><defs><g/><clipPath id="821a1110c4"><rect x="0" width="187" y="0" height="187"/></clipPath></defs><g transform="matrix(1, 0, 0, 1, 0, 0)"><g clip-path="url(#821a1110c4)"><g fill="#ffffff" fill-opacity="1"><g transform="translate(102.497211, 158.694256)"><g/></g></g><g fill="#ffffff" fill-opacity="1"><g transform="translate(91.95246, 159.966554)"><g><path d="M -11.3125 -2.390625 C -9.394531 -2.035156 -7.78125 -1.320312 -6.46875 -0.25 C -5.15625 0.8125 -4.226562 2.210938 -3.6875 3.953125 C -3.15625 5.703125 -3.109375 7.75 -3.546875 10.09375 C -3.972656 12.425781 -4.742188 14.3125 -5.859375 15.75 C -6.984375 17.195312 -8.347656 18.179688 -9.953125 18.703125 C -11.554688 19.234375 -13.316406 19.320312 -15.234375 18.96875 C -17.234375 18.601562 -18.859375 17.898438 -20.109375 16.859375 C -21.359375 15.816406 -22.128906 14.441406 -22.421875 12.734375 L -19.09375 11.453125 L -18.75 11.53125 C -18.5 12.695312 -18.035156 13.582031 -17.359375 14.1875 C -16.691406 14.800781 -15.769531 15.21875 -14.59375 15.4375 C -12.863281 15.757812 -11.410156 15.4375 -10.234375 14.46875 C -9.054688 13.507812 -8.242188 11.789062 -7.796875 9.3125 C -7.335938 6.832031 -7.484375 4.929688 -8.234375 3.609375 C -8.984375 2.296875 -10.222656 1.476562 -11.953125 1.15625 C -14.640625 0.65625 -16.53125 1.664062 -17.625 4.1875 L -17.984375 4.125 L -20.71875 1.984375 C -19.789062 0.117188 -18.550781 -1.175781 -17 -1.90625 C -15.445312 -2.644531 -13.550781 -2.804688 -11.3125 -2.390625 Z M -11.3125 -2.390625 "/></g></g></g><g fill="#ffffff" fill-opacity="1"><g transform="translate(69.032815, 155.929913)"><g><path d="M -8.421875 -5.53125 L -4.53125 -2.984375 L -12.078125 17.328125 L -15.546875 15.046875 L -10.0625 0.890625 L -10.375 0.671875 L -21.6875 11.015625 L -24.671875 9.046875 L -19.734375 -5.46875 L -20.03125 -5.671875 L -30.875 4.984375 L -34.21875 2.78125 L -18.59375 -12.21875 L -14.6875 -9.65625 L -19.078125 3.765625 L -18.828125 3.9375 Z M -8.421875 -5.53125 "/></g></g></g><g fill="#ffffff" fill-opacity="1"><g transform="translate(44.718994, 137.655103)"><g><path d="M -4.265625 -5.453125 L -1.6875 -2.171875 L -18.3125 10.828125 L -20.890625 7.546875 Z M -4.265625 -5.453125 "/></g></g></g><g fill="#ffffff" fill-opacity="1"><g transform="translate(36.50353, 127.20513)"><g><path d="M -6.46875 -15.015625 L -0.34375 -0.796875 L -3.734375 0.65625 L -20.421875 -3.65625 L -20.6875 -3.46875 L -16.6875 5.796875 L -19.890625 7.1875 L -25.828125 -6.578125 L -22.453125 -8.03125 L -5.734375 -3.703125 L -5.5 -3.921875 L -9.6875 -13.625 Z M -6.46875 -15.015625 "/></g></g></g><g fill="#ffffff" fill-opacity="1"><g transform="translate(28.877862, 108.337868)"><g><path d="M -22.65625 -14.78125 L -19.1875 -15.109375 L -18.59375 -9.046875 L -1.0625 -10.78125 L -0.65625 -6.640625 L -18.1875 -4.90625 L -17.59375 1.15625 L -21.0625 1.484375 Z M -22.65625 -14.78125 "/></g></g></g><g fill="#ffffff" fill-opacity="1"><g transform="translate(27.293095, 87.829205)"><g><path d="M -7.5625 -8.75 L -1.9375 -7.515625 L 0.234375 -17.359375 L 3.65625 -16.609375 L 0.59375 -2.6875 L -20.015625 -7.21875 L -17 -20.90625 L -13.609375 -20.15625 L -15.734375 -10.546875 L -10.90625 -9.484375 L -9.046875 -17.890625 L -5.703125 -17.15625 Z M -7.5625 -8.75 "/></g></g></g><g fill="#ffffff" fill-opacity="1"><g transform="translate(32.088308, 67.296818)"><g><path d="M 6.3125 -9.671875 C 5.289062 -8.015625 4.046875 -6.765625 2.578125 -5.921875 C 1.109375 -5.078125 -0.53125 -4.722656 -2.34375 -4.859375 C -4.15625 -5.003906 -6.078125 -5.703125 -8.109375 -6.953125 C -10.128906 -8.203125 -11.609375 -9.609375 -12.546875 -11.171875 C -13.492188 -12.734375 -13.921875 -14.359375 -13.828125 -16.046875 C -13.742188 -17.742188 -13.191406 -19.421875 -12.171875 -21.078125 C -11.109375 -22.804688 -9.863281 -24.0625 -8.4375 -24.84375 C -7.019531 -25.625 -5.460938 -25.847656 -3.765625 -25.515625 L -3.78125 -21.953125 L -3.96875 -21.65625 C -5.144531 -21.851562 -6.140625 -21.742188 -6.953125 -21.328125 C -7.765625 -20.921875 -8.484375 -20.207031 -9.109375 -19.1875 C -10.035156 -17.6875 -10.257812 -16.210938 -9.78125 -14.765625 C -9.300781 -13.328125 -7.988281 -11.945312 -5.84375 -10.625 C -3.695312 -9.300781 -1.875 -8.75 -0.375 -8.96875 C 1.113281 -9.195312 2.320312 -10.0625 3.25 -11.5625 C 4.6875 -13.894531 4.429688 -16.023438 2.484375 -17.953125 L 2.671875 -18.265625 L 5.640625 -20.03125 C 7.054688 -18.5 7.820312 -16.875 7.9375 -15.15625 C 8.050781 -13.4375 7.507812 -11.609375 6.3125 -9.671875 Z M 6.3125 -9.671875 "/></g></g></g><g fill="#ffffff" fill-opacity="1"><g transform="translate(44.581856, 47.526931)"><g><path d="M 5.109375 -20.390625 L 0.3125 -26.71875 L 3.625 -29.21875 L 16.375 -12.390625 L 13.0625 -9.890625 L 7.25 -17.5625 L -0.296875 -11.84375 L 5.515625 -4.171875 L 2.1875 -1.65625 L -10.5625 -18.484375 L -7.234375 -21 L -2.4375 -14.671875 Z M 5.109375 -20.390625 "/></g></g></g><g fill="#ffffff" fill-opacity="1"><g transform="translate(66.579424, 32.808804)"><g><path d="M 3.859375 -1.328125 C 3.378906 -1.148438 2.921875 -1.082031 2.484375 -1.125 C 2.046875 -1.175781 1.664062 -1.335938 1.34375 -1.609375 C 1.019531 -1.878906 0.773438 -2.234375 0.609375 -2.671875 C 0.453125 -3.097656 0.40625 -3.519531 0.46875 -3.9375 C 0.53125 -4.351562 0.707031 -4.726562 1 -5.0625 C 1.289062 -5.40625 1.675781 -5.664062 2.15625 -5.84375 C 2.644531 -6.03125 3.101562 -6.09375 3.53125 -6.03125 C 3.957031 -5.976562 4.335938 -5.816406 4.671875 -5.546875 C 5.003906 -5.273438 5.25 -4.925781 5.40625 -4.5 C 5.65625 -3.832031 5.640625 -3.207031 5.359375 -2.625 C 5.085938 -2.039062 4.585938 -1.609375 3.859375 -1.328125 Z M 3.859375 -1.328125 "/></g></g></g><g fill="#ffffff" fill-opacity="1"><g transform="translate(78.322258, 28.837756)"><g/></g></g><g fill="#ffffff" fill-opacity="1"><g transform="translate(88.841811, 26.708663)"><g><path d="M 18.125 -20.09375 L 17.921875 -16.59375 L 11.84375 -16.953125 L 10.8125 0.625 L 6.65625 0.390625 L 7.6875 -17.1875 L 1.609375 -17.546875 L 1.8125 -21.046875 Z M 18.125 -20.09375 "/></g></g></g><g fill="#ffffff" fill-opacity="1"><g transform="translate(109.294397, 28.210252)"><g><path d="M 2.546875 1.03125 L 10.453125 -18.546875 L 18.3125 -15.375 C 20.34375 -14.5625 21.679688 -13.476562 22.328125 -12.125 C 22.984375 -10.78125 22.984375 -9.285156 22.328125 -7.640625 C 21.847656 -6.453125 21.148438 -5.597656 20.234375 -5.078125 C 19.328125 -4.566406 18.191406 -4.351562 16.828125 -4.4375 L 16.71875 -4.15625 C 17.226562 -3.632812 17.566406 -3.035156 17.734375 -2.359375 C 17.898438 -1.679688 17.941406 -0.757812 17.859375 0.40625 L 17.453125 7.046875 L 13.484375 5.4375 L 13.9375 -1.1875 C 13.96875 -1.851562 13.925781 -2.394531 13.8125 -2.8125 C 13.695312 -3.238281 13.484375 -3.601562 13.171875 -3.90625 C 12.859375 -4.207031 12.394531 -4.484375 11.78125 -4.734375 L 9.71875 -5.5625 L 6.421875 2.59375 Z M 14.46875 -7.21875 C 16.34375 -6.46875 17.632812 -6.96875 18.34375 -8.71875 C 19.0625 -10.488281 18.484375 -11.75 16.609375 -12.5 L 13.09375 -13.921875 L 10.953125 -8.640625 Z M 14.46875 -7.21875 "/></g></g></g><g fill="#ffffff" fill-opacity="1"><g transform="translate(130.066833, 37.041867)"><g><path d="M 15.109375 13.5 L 11.84375 10.578125 L 13.875 5.890625 L 7.859375 0.515625 L 3.4375 3.078125 L 0.234375 0.203125 L 19.734375 -10.65625 L 23.734375 -7.09375 Z M 18.609375 -5.765625 L 11.046875 -1.359375 L 15.359375 2.5 L 18.890625 -5.515625 Z M 18.609375 -5.765625 "/></g></g></g><g fill="#ffffff" fill-opacity="1"><g transform="translate(147.019827, 53.82321)"><g><path d="M 3.6875 5.859375 L 1.46875 2.328125 L 19.328125 -8.921875 L 21.546875 -5.390625 Z M 3.6875 5.859375 "/></g></g></g><g fill="#ffffff" fill-opacity="1"><g transform="translate(154.401462, 64.57479)"><g><path d="M 1.78125 6.546875 L 0.71875 2.65625 L 21.078125 -2.90625 L 22.34375 1.703125 L 11.46875 13.453125 L 11.609375 13.8125 L 24.671875 10.234375 L 25.734375 14.109375 L 5.375 19.671875 L 4.25 15.5625 L 15.90625 3.078125 L 15.734375 2.734375 Z M 1.78125 6.546875 "/></g></g></g><g fill="#ffffff" fill-opacity="1"><g transform="translate(159.89609, 90.247048)"><g><path d="M -0.203125 6.921875 L -0.078125 2.75 L 21.015625 3.375 L 20.890625 7.546875 Z M -0.203125 6.921875 "/></g></g></g><g fill="#ffffff" fill-opacity="1"><g transform="translate(160.021789, 103.286769)"><g><path d="M -2.171875 6.421875 L -0.875 2.609375 L 19.125 9.359375 L 17.59375 13.890625 L 2 17.5625 L 1.9375 17.9375 L 14.765625 22.265625 L 13.484375 26.0625 L -6.515625 19.3125 L -5.15625 15.28125 L 11.484375 11.421875 L 11.53125 11.046875 Z M -2.171875 6.421875 "/></g></g></g><g fill="#ffffff" fill-opacity="1"><g transform="translate(151.216291, 127.463872)"><g><path d="M -6.84375 7.625 C -5.707031 6.28125 -4.414062 5.375 -2.96875 4.90625 C -1.53125 4.445312 0.0234375 4.472656 1.703125 4.984375 C 3.390625 5.503906 5.148438 6.539062 6.984375 8.09375 C 8.816406 9.65625 10.078125 11.28125 10.765625 12.96875 C 11.460938 14.65625 11.632812 16.320312 11.28125 17.96875 C 10.925781 19.625 10.117188 21.195312 8.859375 22.6875 C 7.546875 24.226562 6.140625 25.300781 4.640625 25.90625 C 3.148438 26.507812 1.648438 26.546875 0.140625 26.015625 L 0.71875 22.5 L 0.9375 22.25 C 1.9375 22.519531 2.859375 22.492188 3.703125 22.171875 C 4.546875 21.859375 5.347656 21.253906 6.109375 20.359375 C 7.273438 18.972656 7.734375 17.539062 7.484375 16.0625 C 7.234375 14.582031 6.140625 13.019531 4.203125 11.375 C 2.253906 9.726562 0.546875 8.875 -0.921875 8.8125 C -2.390625 8.75 -3.691406 9.390625 -4.828125 10.734375 C -5.816406 11.890625 -6.28125 12.960938 -6.21875 13.953125 C -6.164062 14.953125 -5.625 15.890625 -4.59375 16.765625 L -3.890625 17.359375 L -0.671875 13.546875 L 1.921875 15.75 L -3.984375 22.734375 L -12.875 15.1875 L -10.296875 12.140625 L -8.140625 13.96875 L -7.90625 13.765625 C -8.40625 12.785156 -8.578125 11.78125 -8.421875 10.75 C -8.265625 9.71875 -7.738281 8.675781 -6.84375 7.625 Z M -6.84375 7.625 "/></g></g></g><g fill="#ffffff" fill-opacity="1"><g transform="translate(134.553105, 145.838815)"><g><path d="M -8.25 4.421875 C -6.976562 3.691406 -5.757812 3.191406 -4.59375 2.921875 C -3.425781 2.660156 -2.367188 2.59375 -1.421875 2.71875 C -0.472656 2.851562 0.347656 3.125 1.046875 3.53125 L 0.453125 7.109375 L 0.140625 7.28125 C -0.878906 6.789062 -1.945312 6.546875 -3.0625 6.546875 C -4.1875 6.554688 -5.316406 6.890625 -6.453125 7.546875 C -7.421875 8.097656 -8.03125 8.71875 -8.28125 9.40625 C -8.539062 10.101562 -8.460938 10.8125 -8.046875 11.53125 C -7.796875 11.96875 -7.507812 12.285156 -7.1875 12.484375 C -6.863281 12.679688 -6.457031 12.78125 -5.96875 12.78125 C -5.488281 12.78125 -4.890625 12.671875 -4.171875 12.453125 L -1.515625 11.640625 C 0.347656 11.078125 1.929688 10.992188 3.234375 11.390625 C 4.546875 11.796875 5.601562 12.691406 6.40625 14.078125 C 7.007812 15.117188 7.273438 16.179688 7.203125 17.265625 C 7.128906 18.359375 6.722656 19.40625 5.984375 20.40625 C 5.242188 21.40625 4.191406 22.300781 2.828125 23.09375 C 1.410156 23.90625 0.09375 24.410156 -1.125 24.609375 C -2.34375 24.816406 -3.519531 24.738281 -4.65625 24.375 L -4.28125 20.90625 L -3.96875 20.71875 C -3.132812 20.957031 -2.304688 21.019531 -1.484375 20.90625 C -0.671875 20.800781 0.171875 20.5 1.046875 20 C 2.035156 19.425781 2.6875 18.816406 3 18.171875 C 3.320312 17.523438 3.300781 16.890625 2.9375 16.265625 C 2.613281 15.691406 2.171875 15.335938 1.609375 15.203125 C 1.046875 15.078125 0.265625 15.175781 -0.734375 15.5 L -3.4375 16.375 C -5.414062 17.019531 -7.066406 17.125 -8.390625 16.6875 C -9.710938 16.25 -10.789062 15.3125 -11.625 13.875 C -12.28125 12.738281 -12.601562 11.601562 -12.59375 10.46875 C -12.59375 9.34375 -12.226562 8.257812 -11.5 7.21875 C -10.78125 6.1875 -9.695312 5.253906 -8.25 4.421875 Z M -8.25 4.421875 "/></g></g></g><g fill="#ffffff" fill-opacity="1"><g transform="translate(115.275642, 155.70316)"><g><path d="M -3.96875 0.96875 C -3.46875 0.832031 -3.003906 0.8125 -2.578125 0.90625 C -2.148438 1 -1.785156 1.191406 -1.484375 1.484375 C -1.179688 1.785156 -0.96875 2.160156 -0.84375 2.609375 C -0.71875 3.046875 -0.707031 3.472656 -0.8125 3.890625 C -0.914062 4.304688 -1.128906 4.664062 -1.453125 4.96875 C -1.773438 5.269531 -2.1875 5.488281 -2.6875 5.625 C -3.1875 5.757812 -3.644531 5.78125 -4.0625 5.6875 C -4.488281 5.601562 -4.851562 5.40625 -5.15625 5.09375 C -5.457031 4.789062 -5.671875 4.421875 -5.796875 3.984375 C -5.984375 3.296875 -5.910156 2.671875 -5.578125 2.109375 C -5.253906 1.554688 -4.71875 1.175781 -3.96875 0.96875 Z M -3.96875 0.96875 "/></g></g></g><g fill="#ffffff" fill-opacity="1"><g transform="translate(103.248763, 158.589536)"><g/></g></g><g fill="#ffffff" fill-opacity="1"><g transform="translate(91.980152, 159.25228)"><g/></g></g></g></g></svg>